<svg xmlns="http://www.w3.org/2000/svg" version="1.1" xmlns:xlink="http://www.w3.org/1999/xlink" xmlns:svgjs="http://svgjs.dev/svgjs" width="100%" height="100%" viewBox="0 0 1000 600"><rect width="1000" height="600" x="0" y="0" fill="white"/><g><rect width="333.3333333333333" height="333.3333333333333" rx="13.333333333333334" ry="13.333333333333334" y="300.10325023010375" fill="#48556a" transform="matrix(0.4498327404141478,0,0,0.4498327404141478,0,90.03159235392305)" x="277.8810729980469"/><path d="M315.07724796931217 541.7699153464753L300.37817393850395 541.7699153464753L300.37817393850395 391.7699157879912L314.4406738971118 391.7699157879912L373.41058113094493 517.927322824062L432.03326614357775 391.7699157879912L446.3272475829858 391.7699157879912L446.3272475829858 541.6541746060752L431.74391429257764 541.6541746060752L431.74391429257764 425.9423693911104L378.30062741284763 541.7699153464753L368.4047941086421 541.7699153464753L315.07724796931217 425.9423693911104L315.07724796931217 541.7699153464753ZM480.9915993328052 541.7699153464753L465.0772475277963 541.7699153464753L516.7265529313253 391.7699157879912L537.0390528715366 391.7699157879912L588.7172934601656 541.7699153464753L572.7740064700567 541.7699153464753L523.6999325404291 400.305795392496L529.7473862263325 400.305795392496L480.9915993328052 541.7699153464753ZM565.5980805652528 505.42732286085493L488.0807196823092 505.42732286085493L488.0807196823092 491.0465358661469L565.5980805652528 491.0465358661469L565.5980805652528 505.42732286085493Z " fill="white" transform="matrix(0.4498327404141478,0,0,0.4498327404141478,0,90.03159235392305)"/><path d="M705.4024309002781 504.8468432413034L694.547729573698 504.8468432413034L694.547729573698 394.07760765667547L704.9323454097569 394.07760765667547L748.4793558498557 487.24000486905544L791.7699560223973 394.07760765667547L802.3255120368275 394.07760765667547L802.3255120368275 504.76137315211776L791.5562807994331 504.76137315211776L791.5562807994331 419.31265148874445L752.0904671179501 504.8468432413034L744.7827744925753 504.8468432413034L705.4024309002781 419.31265148874445L705.4024309002781 504.8468432413034ZM836.7058554117631 406.0006850980764L825.4024361169584 406.0006850980764L825.4024361169584 393.30837685400445L836.7058554117631 393.30837685400445L836.7058554117631 406.0006850980764ZM836.7058554117631 504.8468432413034L825.4024361169584 504.8468432413034L825.4024361169584 421.76991655283246L836.7058554117631 421.76991655283246L836.7058554117631 504.8468432413034ZM894.2485929560153 507.15453564931653L894.2485929560153 507.15453564931653Q881.7058573680182 507.15453564931653 873.0092757933763 501.53487728535873Q864.3126942187345 495.91521892140094 859.8255145364868 486.04342362045605Q855.3169673319427 476.1502607972148 855.1673946758677 463.30837989706794L855.1673946758677 463.30837989706794Q855.3169673319427 450.23145625166046 859.9323521479689 440.3382934284192Q864.547736963995 430.4664981274744 873.2443185386369 424.9536773749987Q881.9409001132788 419.4622241448194 894.3126955229045 419.4622241448194L894.3126955229045 419.4622241448194Q906.9409012000872 419.4622241448194 916.2785084436216 425.6160705661876Q925.616115687156 431.7699169875558 929.0776542991757 442.4536781357645L929.0776542991757 442.4536781357645L918.0092777496315 446.0006868369698Q915.0819271950222 438.5434215555201 908.7357730729863 434.41948975231156Q902.3896189509503 430.31692547139943 894.2485929560153 430.31692547139943L894.2485929560153 430.31692547139943Q885.0819258908522 430.31692547139943 879.0776521255589 434.5049598414972Q873.0947458825619 438.6929942115951 870.1673953279528 446.15025949304476Q867.2400447733436 453.60752477449444 867.154574684158 463.30837989706794L867.154574684158 463.30837989706794Q867.3255148625293 478.2229104599673 874.0776519081971 487.26137239135187Q880.8511564761616 496.29983432273644 894.2485929560153 496.29983432273644L894.2485929560153 496.29983432273644Q902.7101317853965 496.29983432273644 908.671670506097 492.43231278708487Q914.6332092267975 488.5434237291369 917.7101324374815 481.08615844768724L917.7101324374815 481.08615844768724L929.0776542991757 484.46222697052116Q924.4622694831495 495.5306035200654 915.5520126855434 501.3425695846909Q906.6203883656409 507.15453564931653 894.2485929560153 507.15453564931653ZM1016.3212478354479 504.8468432413034L1004.9323584514575 504.8468432413034L1004.9323584514575 462.4536790052112Q1004.9323584514575 455.530601781172 1003.628939591376 449.74000323884286Q1002.3255207312945 443.9280371742173 999.4409052212782 439.5690626257482Q996.5562897112618 435.23145559957544 991.9622724175321 432.83829310237667Q987.3896226460988 430.4664981274744 980.851160823395 430.4664981274744L980.851160823395 430.4664981274744Q974.8468870581017 430.4664981274744 970.2742372866685 432.5391477902269Q965.7015875152351 434.6117974529794 962.5819292599581 438.5006865109273Q959.4622710046813 442.3895755688753 957.8597068324499 447.9237638436474Q956.2357751379222 453.45795211841954 956.2357751379222 460.53060199853365L956.2357751379222 460.53060199853365L948.244321799062 458.77846517022743Q948.244321799062 446.0006868369698 952.7101339590133 437.30410526232794Q957.1545785966681 428.60752368768607 965.0178268017498 424.16307905003123Q972.859707484535 419.69726689007996 983.0092805753332 419.69726689007996L983.0092805753332 419.69726689007996Q990.4665458567829 419.69726689007996 996.0434691761477 422.00495929809307Q1001.6203924955128 424.3126517061061 1005.5092815534607 428.22290828635056Q1009.3981706114087 432.1545323888913 1011.7699655863111 437.19726765084584Q1014.1631280835098 442.2400029128004 1015.2315041983306 447.88102879905455Q1016.3212478354479 453.5434222076052 1016.3212478354479 459.16308057156294L1016.3212478354479 459.16308057156294L1016.3212478354479 504.8468432413034ZM956.2357751379222 504.8468432413034L944.8468857539317 504.8468432413034L944.8468857539317 394.07760765667547L955.0819289339156 394.07760765667547L955.0819289339156 456.6203454182893L956.2357751379222 456.6203454182893L956.2357751379222 504.8468432413034ZM1071.4708228825014 507.15453564931653L1071.4708228825014 507.15453564931653Q1059.3127026958398 507.15453564931653 1050.4238134205302 501.7699200306193Q1041.556291667517 496.3853044119221 1036.6203940170444 486.6203467224594Q1031.7058638888684 476.8553890329966 1031.7058638888684 463.69299529840345L1031.7058638888684 463.69299529840345Q1031.7058638888684 450.08188359558557 1036.5562914501552 440.14598572775145Q1041.3853514891457 430.23145538221377 1050.210138197566 424.8468397635166Q1059.01355738369 419.4622241448194 1071.0007373919802 419.4622241448194L1071.0007373919802 419.4622241448194Q1083.3084302347165 419.4622241448194 1092.0050118093586 425.12461755337Q1100.7015933840003 430.76564343962417 1105.1674055439516 441.299831931758Q1109.6332177039028 451.8553879461882 1109.2486023025674 466.4707731969377L1109.2486023025674 466.4707731969377L1097.710140262502 466.4707731969377L1097.710140262502 462.4536790052112Q1097.3896274280557 446.29983214911965 1090.7443279938698 438.07333606499895Q1084.0776610373875 429.84683998087826 1071.3212502264264 429.84683998087826L1071.3212502264264 429.84683998087826Q1057.9238137465727 429.84683998087826 1050.8084288218656 438.5434215555201Q1043.6930438971588 447.24000313016205 1043.6930438971588 463.30837989706794L1043.6930438971588 463.30837989706794Q1043.6930438971588 478.9921412626383 1050.8084288218656 487.6459877926874Q1057.9238137465727 496.29983432273644 1071.0007373919802 496.29983432273644L1071.0007373919802 496.29983432273644Q1079.9323617118825 496.29983432273644 1086.5776611460683 492.1972700418243Q1093.2443281025508 488.07333823861575 1097.0904821159058 480.31692764501616L1097.0904821159058 480.31692764501616L1107.6246706080397 484.37675688133555Q1102.7101404798636 495.2314582079156 1093.1161229687723 501.192996928616Q1083.5434729799772 507.15453564931653 1071.4708228825014 507.15453564931653ZM1103.1588584480883 466.4707731969377L1039.6973172277287 466.4707731969377L1039.6973172277287 457.0049608196248L1103.1588584480883 457.0049608196248L1103.1588584480883 466.4707731969377ZM1139.0776634283661 504.8468432413034L1127.7742441335613 504.8468432413034L1127.7742441335613 391.7699152486624L1139.0776634283661 391.7699152486624L1139.0776634283661 504.8468432413034ZM1175.0178359309402 504.8468432413034L1163.693049113839 504.8468432413034L1163.693049113839 391.7699152486624L1175.0178359309402 391.7699152486624L1175.0178359309402 504.8468432413034ZM1233.2443341886776 507.15453564931653L1233.2443341886776 507.15453564931653Q1221.086214002016 507.15453564931653 1212.1973247267065 501.7699200306193Q1203.3084354513967 496.3853044119221 1198.3939053232207 486.6203467224594Q1193.479375195045 476.8553890329966 1193.479375195045 463.69299529840345L1193.479375195045 463.69299529840345Q1193.479375195045 450.08188359558557 1198.3084352340352 440.14598572775145Q1203.158862795322 430.23145538221377 1211.9622819814458 424.8468397635166Q1220.7870686898664 419.4622241448194 1232.7742486981565 419.4622241448194L1232.7742486981565 419.4622241448194Q1245.0819415408928 419.4622241448194 1253.7785231155349 425.12461755337Q1262.4751046901765 430.76564343962417 1266.940916850128 441.299831931758Q1271.3853614877828 451.8553879461882 1271.0007460864472 466.4707731969377L1271.0007460864472 466.4707731969377L1259.462284046382 466.4707731969377L1259.462284046382 462.4536790052112Q1259.1631387342318 446.29983214911965 1252.517839300046 438.07333606499895Q1245.851172343564 429.84683998087826 1233.0947615326027 429.84683998087826L1233.0947615326027 429.84683998087826Q1219.697325052749 429.84683998087826 1212.5819401280419 438.5434215555201Q1205.4665552033348 447.24000313016205 1205.4665552033348 463.30837989706794L1205.4665552033348 463.30837989706794Q1205.4665552033348 478.9921412626383 1212.5819401280419 487.6459877926874Q1219.697325052749 496.29983432273644 1232.7742486981565 496.29983432273644L1232.7742486981565 496.29983432273644Q1241.7058730180588 496.29983432273644 1248.351172452245 492.1972700418243Q1255.017839408727 488.07333823861575 1258.863993422082 480.31692764501616L1258.863993422082 480.31692764501616L1269.398181914216 484.37675688133555Q1264.4622842637436 495.2314582079156 1254.8896342749485 501.192996928616Q1245.3169842861535 507.15453564931653 1233.2443341886776 507.15453564931653ZM1264.9323697542645 466.4707731969377L1201.470828533905 466.4707731969377L1201.470828533905 457.0049608196248L1264.9323697542645 457.0049608196248L1264.9323697542645 466.4707731969377ZM1322.8597226998522 504.8468432413034L1311.0862179145263 504.8468432413034L1349.2486127359277 394.07760765667547L1364.2486133880127 394.07760765667547L1402.389640687118 504.8468432413034L1390.6161359017922 504.8468432413034L1354.3981856093644 400.3810267341186L1358.8639977693158 400.3810267341186L1322.8597226998522 504.8468432413034ZM1385.3169903722803 478.0092352370031L1328.0947656624746 478.0092352370031L1328.0947656624746 467.3895766556837L1385.3169903722803 467.3895766556837L1385.3169903722803 478.0092352370031ZM1453.5434890647414 507.15453564931653L1453.5434890647414 507.15453564931653Q1442.0904971138614 507.15453564931653 1434.1631463418905 501.3425695846909Q1426.23579556992 495.5306035200654 1422.1545988113041 485.57333812993494Q1418.0947695749849 475.6160727398044 1418.0947695749849 463.2229098078823L1418.0947695749849 463.2229098078823Q1418.0947695749849 450.61607165299597 1422.1973338558969 440.7229088297547Q1426.3212656591056 430.8511135288099 1434.3127189979657 425.14598507566643Q1442.325539859122 419.4622241448194 1454.0135745552625 419.4622241448194L1454.0135745552625 419.4622241448194Q1465.402463939253 419.4622241448194 1473.543489934188 425.2314551648521Q1481.7058834514194 431.0006861848848 1486.043490477592 440.91521653042247Q1490.4024650260615 450.8511143982566 1490.4024650260615 463.2229098078823L1490.4024650260615 463.2229098078823Q1490.4024650260615 475.70154282899006 1486.0007554329993 485.61607317452774Q1481.6204133622336 495.5306035200654 1473.3939172781131 501.3425695846909Q1465.1674211939924 507.15453564931653 1453.5434890647414 507.15453564931653ZM1427.539214430001 541.7699217695126L1416.1716925683072 541.7699217695126L1416.1716925683072 421.76991655283246L1426.3212656591056 421.76991655283246L1426.3212656591056 484.31265431444626L1427.539214430001 484.31265431444626L1427.539214430001 541.7699217695126ZM1452.3896428607347 496.6203471571827L1452.3896428607347 496.6203471571827Q1461.0862244353766 496.6203471571827 1466.8554554554094 492.2400050864171Q1472.624686475442 487.83829549335513 1475.5093019854583 480.27419260042336Q1478.3939174954746 472.6887221851952 1478.3939174954746 463.2229098078823L1478.3939174954746 463.2229098078823Q1478.3939174954746 453.84256751975505 1475.5520370300512 446.29983214911965Q1472.7101565646278 438.77846430078074 1466.898190500002 434.37675470771876Q1461.0862244353766 429.99641263695315 1452.154600115474 429.99641263695315L1452.154600115474 429.99641263695315Q1443.4793860631287 429.99641263695315 1437.7315225653924 434.22718205164387Q1432.0050265899524 438.45795146633446 1429.163146124529 445.957951792377Q1426.3212656591056 453.45795211841954 1426.3212656591056 463.2229098078823L1426.3212656591056 463.2229098078823Q1426.3212656591056 472.8382948412701 1429.163146124529 480.4237652564983Q1432.0050265899524 488.00923567172646 1437.7742576099852 492.3041076533064Q1443.543488630018 496.6203471571827 1452.3896428607347 496.6203471571827ZM1544.6332366143686 507.15453564931653L1544.6332366143686 507.15453564931653Q1533.1588771411925 507.15453564931653 1525.231526369222 501.3425695846909Q1517.3255431195473 495.5306035200654 1513.2443463609316 485.57333812993494Q1509.1631496023158 475.6160727398044 1509.1631496023158 463.2229098078823L1509.1631496023158 463.2229098078823Q1509.1631496023158 450.61607165299597 1513.2870814055243 440.7229088297547Q1517.3896456864366 430.8511135288099 1525.402466547593 425.14598507566643Q1533.3939198864532 419.4622241448194 1545.0819545825934 419.4622241448194L1545.0819545825934 419.4622241448194Q1556.470843966584 419.4622241448194 1564.6332374838155 425.2314551648521Q1572.7742634787505 431.0006861848848 1577.1332380272195 440.91521653042247Q1581.4708450533924 450.8511143982566 1581.4708450533924 463.2229098078823L1581.4708450533924 463.2229098078823Q1581.4708450533924 475.70154282899006 1577.0905029826267 485.61607317452774Q1572.710160911861 495.5306035200654 1564.462297305444 501.3425695846909Q1556.2358012213233 507.15453564931653 1544.6332366143686 507.15453564931653ZM1518.6289619796287 541.7699217695126L1507.2400725956384 541.7699217695126L1507.2400725956384 421.76991655283246L1517.3896456864366 421.76991655283246L1517.3896456864366 484.31265431444626L1518.6289619796287 484.31265431444626L1518.6289619796287 541.7699217695126ZM1543.4793904103622 496.6203471571827L1543.4793904103622 496.6203471571827Q1552.1546044627075 496.6203471571827 1557.9238354827405 492.2400050864171Q1563.693066502773 487.83829549335513 1566.5776820127892 480.27419260042336Q1569.4622975228058 472.6887221851952 1569.4622975228058 463.2229098078823L1569.4622975228058 463.2229098078823Q1569.4622975228058 453.84256751975505 1566.6204170573822 446.29983214911965Q1563.7785365919588 438.77846430078074 1557.9665705273333 434.37675470771876Q1552.1546044627075 429.99641263695315 1543.2443476651017 429.99641263695315L1543.2443476651017 429.99641263695315Q1534.5477660904596 429.99641263695315 1528.8212701150198 434.22718205164387Q1523.09477413958 438.45795146633446 1520.23152615186 445.957951792377Q1517.3896456864366 453.45795211841954 1517.3896456864366 463.2229098078823L1517.3896456864366 463.2229098078823Q1517.3896456864366 472.8382948412701 1520.23152615186 480.4237652564983Q1523.09477413958 488.00923567172646 1528.8640051596126 492.3041076533064Q1534.6332361796453 496.6203471571827 1543.4793904103622 496.6203471571827ZM1611.2358036123019 504.8468432413034L1599.9323843174968 504.8468432413034L1599.9323843174968 391.7699152486624L1611.2358036123019 391.7699152486624L1611.2358036123019 504.8468432413034ZM1669.4623018700393 507.15453564931653L1669.4623018700393 507.15453564931653Q1657.3255492056742 507.15453564931653 1648.4366599303646 501.7699200306193Q1639.547770655055 496.3853044119221 1634.6332405268788 486.6203467224594Q1629.6973428764065 476.8553890329966 1629.6973428764065 463.69299529840345L1629.6973428764065 463.69299529840345Q1629.6973428764065 450.08188359558557 1634.5477704376933 440.14598572775145Q1639.39819799898 430.23145538221377 1648.201617185104 424.8468397635166Q1657.0050363712282 419.4622241448194 1669.0135839018146 419.4622241448194L1669.0135839018146 419.4622241448194Q1681.321276744551 419.4622241448194 1690.017858319193 425.12461755337Q1698.6930723715384 430.76564343962417 1703.1588845314895 441.299831931758Q1707.6246966914407 451.8553879461882 1707.2400812901053 466.4707731969377L1707.2400812901053 466.4707731969377L1695.7016192500398 466.4707731969377L1695.7016192500398 462.4536790052112Q1695.40247393789 446.29983214911965 1688.735806981408 438.07333606499895Q1682.0905075472222 429.84683998087826 1669.3127292139645 429.84683998087826L1669.3127292139645 429.84683998087826Q1655.936660256407 429.84683998087826 1648.8212753317 438.5434215555201Q1641.705890406993 447.24000313016205 1641.705890406993 463.30837989706794L1641.705890406993 463.30837989706794Q1641.705890406993 478.9921412626383 1648.8212753317 487.6459877926874Q1655.936660256407 496.29983432273644 1669.0135839018146 496.29983432273644L1669.0135839018146 496.29983432273644Q1677.9238406994207 496.29983432273644 1684.590507655903 492.1972700418243Q1691.2358070900889 488.07333823861575 1695.0819611034437 480.31692764501616L1695.0819611034437 480.31692764501616L1705.6161495955776 484.37675688133555Q1700.7016194674015 495.2314582079156 1691.1289694786067 501.192996928616Q1681.5563194898116 507.15453564931653 1669.4623018700393 507.15453564931653ZM1701.1717049579227 466.4707731969377L1637.710163737563 466.4707731969377L1637.710163737563 457.0049608196248L1701.1717049579227 457.0049608196248L1701.1717049579227 466.4707731969377ZM1769.462306217273 494.93231289576573L1769.462306217273 504.8468432413034Q1762.4751264263443 506.2998347574598 1755.6588868137871 506.00068944530994Q1748.8640147235262 505.7015441331601 1743.5007666271256 503.07333889070077Q1738.1588860530212 500.4665011705378 1735.4024756767833 494.93231289576573L1735.4024756767833 494.93231289576573Q1733.1588858356597 490.31692807973957 1732.966578134992 485.57333812993494Q1732.7742704343243 480.8511157024266 1732.7742704343243 474.7613718479477L1732.7742704343243 474.7613718479477L1732.7742704343243 398.6929924727017L1744.01358716224 398.6929924727017L1744.01358716224 474.3126538797229Q1744.01358716224 479.54769684234515 1744.1204247737217 483.0306029766612Q1744.2486299075001 486.53487663327365 1745.7016214236567 489.2271844426223L1745.7016214236567 489.2271844426223Q1748.4793993221908 494.3767573160589 1754.505040609781 495.3810308639905Q1760.552049419667 496.3853044119221 1769.462306217273 494.93231289576573L1769.462306217273 494.93231289576573ZM1769.462306217273 431.47077167540596L1715.017859406001 431.47077167540596L1715.017859406001 421.76991655283246L1769.462306217273 421.76991655283246L1769.462306217273 431.47077167540596ZM1817.4751288173231 507.15453564931653L1817.4751288173231 507.15453564931653Q1805.081965885401 507.15453564931653 1796.3212817438696 501.53487728535873Q1787.539230080042 495.91521892140094 1782.8597426971266 486.00068857586325Q1778.1588877919146 476.08615823032557 1778.1588877919146 463.2229098078823L1778.1588877919146 463.2229098078823Q1778.1588877919146 450.1459861624748 1782.9238452640159 440.3169259061228Q1787.7101702584134 430.4664981274744 1796.5135894445373 424.9536773749987Q1805.3170086306611 419.4622241448194 1817.4751288173231 419.4622241448194L1817.4751288173231 419.4622241448194Q1829.9323943161342 419.4622241448194 1838.735813502258 425.03914746418434Q1847.5392326883823 430.6160707835493 1852.1973525490014 440.50923360679053Q1856.85547240962 450.3810289077354 1856.85547240962 463.2229098078823L1856.85547240962 463.2229098078823Q1856.85547240962 476.29983345328975 1852.154617504408 486.192996276531Q1847.475130121493 496.08615909977226 1838.6289758907762 501.6203473745444Q1829.7828216600594 507.15453564931653 1817.4751288173231 507.15453564931653ZM1817.4751288173231 496.29983432273644L1817.4751288173231 496.29983432273644Q1831.321283265401 496.29983432273644 1838.0947878333657 487.111799735277Q1844.8469248790336 477.92376514781745 1844.8469248790336 463.2229098078823L1844.8469248790336 463.2229098078823Q1844.8469248790336 448.15880658890796 1838.0520527887727 439.2271822690055Q1831.2358131762155 430.31692547139943 1817.4751288173231 430.31692547139943L1817.4751288173231 430.31692547139943Q1808.158889096085 430.31692547139943 1802.1332478084953 434.5049598414972Q1796.086238998609 438.6929942115951 1793.116153399407 446.1075244484519Q1790.1674353225014 453.5434222076052 1790.1674353225014 463.2229098078823L1790.1674353225014 463.2229098078823Q1790.1674353225014 478.2229104599673 1797.0905125465404 487.26137239135187Q1804.0135897705798 496.29983432273644 1817.4751288173231 496.29983432273644ZM1945.1674420607135 504.8468432413034L1933.7785526767227 504.8468432413034L1933.7785526767227 462.4536790052112Q1933.7785526767227 455.530601781172 1932.4751338166413 449.74000323884286Q1931.17171495656 443.9280371742173 1928.2870994465436 439.5690626257482Q1925.4024839365272 435.23145559957544 1920.8084666427974 432.83829310237667Q1916.2358168713638 430.4664981274744 1909.6973550486607 430.4664981274744L1909.6973550486607 430.4664981274744Q1903.6930812833668 430.4664981274744 1899.1204315119337 432.5391477902269Q1894.5477817405006 434.6117974529794 1891.428123485223 438.5006865109273Q1888.3084652299465 442.3895755688753 1886.7059010577152 447.9237638436474Q1885.0819693631877 453.45795211841954 1885.0819693631877 460.53060199853365L1885.0819693631877 460.53060199853365L1877.0905160243276 458.77846517022743Q1877.0905160243276 446.0006868369698 1881.5563281842785 437.30410526232794Q1886.0007728219337 428.60752368768607 1893.8640210270153 424.16307905003123Q1901.7059017098002 419.69726689007996 1911.8554748005984 419.69726689007996L1911.8554748005984 419.69726689007996Q1919.3127400820483 419.69726689007996 1924.8896634014134 422.00495929809307Q1930.4665867207784 424.3126517061061 1934.3554757787263 428.22290828635056Q1938.244364836674 432.1545323888913 1940.6161598115766 437.19726765084584Q1943.0093223087754 442.2400029128004 1944.077698423596 447.88102879905455Q1945.1674420607135 453.5434222076052 1945.1674420607135 459.16308057156294L1945.1674420607135 459.16308057156294L1945.1674420607135 504.8468432413034ZM1885.0819693631877 504.8468432413034L1873.693079979197 504.8468432413034L1873.693079979197 421.76991655283246L1883.928123159181 421.76991655283246L1883.928123159181 442.2400029128004L1885.0819693631877 442.2400029128004L1885.0819693631877 504.8468432413034Z " fill="#48556a" transform="matrix(0.4498327404141478,0,0,0.4498327404141478,0,90.03159235392305)"/></g></svg>